#!OML:ASF H:\GeneralSubjects\Female5\Project 1\Capture day 1\Session 1\Female5.ASF
:FULLY-SPECIFIED
:DEGREES
223
root -19.9783 16.3268 5.06537 -15.6198 82.6897 -40.3408
lowerback 10.9157 1.06467 2.71644
upperback -11.9214 2.7734 1.90789
thorax -20.1028 1.22078 -0.100879
lowerneck -19.6701 -0.959922 -0.310793
upperneck 35.4751 0.00182761 -0.932
head 15.8962 0.153994 -0.251893
rclavicle -7.01958e-015 3.45885e-014
rhumerus 16.6551 14.6852 -40.7019
rradius 84.6831
rwrist -9.65371
rhand -34.6516 -9.37442
rfingers 7.12502
rthumb -7.80849 -39.2102
lclavicle -7.01958e-015 3.45885e-014
lhumerus 24.8506 -6.0669 43.6897
lradius 82.0734
lwrist 3.16836
lhand -37.8865 30.7267
lfingers 7.12502
lthumb -10.9298 60.4222
rfemur -12.7201 2.27533 32.1445
rtibia 21.6737
rfoot 3.60348 -7.58468
rtoes -39.9243
lfemur -15.0025 -6.57856 -24.9408
ltibia 29.3951
lfoot -7.88133 11.2606
ltoes -42.9346
224
root -19.4353 16.6944 5.07074 -15.0132 82.4608 -38.1405
lowerback 9.49702 1.00185 2.98163
upperback -12.3223 2.70854 1.78296
thorax -19.6367 1.16868 -0.346053
lowerneck -17.4641 -1.16993 -0.38867
upperneck 37.7923 -0.029027 -0.750864
head 16.5397 0.268398 -0.135806
rclavicle -8.0368e-015 -5.56597e-015
rhumerus 14.4237 15.4906 -40.3256
rradius 84.3527
rwrist -9.63416
rhand -34.9641 -8.38991
rfingers 7.12502
rthumb -8.11016 -38.2143
lclavicle -8.0368e-015 -5.56597e-015
lhumerus 23.4804 -4.84307 42.367
lradius 81.5303
lwrist 2.59855
lhand -38.3604 30.7381
lfingers 7.12502
lthumb -11.3868 60.409
rfemur -7.52007 3.49248 31.775
rtibia 16.9106
rfoot 10.5734 -10.6575
rtoes -38.7932
lfemur -9.2348 -7.3094 -25.2361
ltibia 23.601
lfoot -6.02609 18.675
ltoes -43.1606
225
root -18.8936 17.0682 5.07445 -14.5569 82.3023 -36.1198
lowerback 8.03766 0.90626 3.307
upperback -12.6488 2.58714 1.62973
thorax -19.0433 1.08077 -0.641076
lowerneck -15.0543 -1.44048 -0.513769
upperneck 39.8338 -0.129247 -0.555098
head 17.0293 0.356665 -0.00822543
rclavicle 3.0501e-015 3.27995e-014
rhumerus 11.3635 17.7782 -40.7326
rradius 83.0778
rwrist -9.55135
rhand -34.4909 -8.07642
rfingers 7.12502
rthumb -7.6534 -37.9179
lclavicle 3.0501e-015 3.27995e-014
lhumerus 21.2649 -4.58792 41.7215
lradius 80.6973
lwrist 1.94749
lhand -38.6024 30.7416
lfingers 7.12502
lthumb -11.6202 60.3994
rfemur -3.24948 4.9651 31.7693
rtibia 13.5588
rfoot 17.268 -15.0957
rtoes -35.7633
lfemur -4.44923 -8.17027 -25.6946
ltibia 19.2938
lfoot -4.64623 25.9327
ltoes -43.293
226
root -18.3694 17.4367 5.07566 -13.8692 82.2196 -33.9721
lowerback 6.60562 0.784056 3.59786
upperback -12.8549 2.39848 1.46077
thorax -18.3187 0.965327 -0.919853
lowerneck -12.553 -1.68971 -0.566819
upperneck 41.3355 -0.22521 -0.44379
head 17.2251 0.435942 0.0710943
rclavicle -5.18083e-015 -7.35503e-015
rhumerus 7.72303 21.2072 -42.0857
rradius 81.0085
rwrist -9.45378
rhand -33.2407 -8.21961
rfingers 7.12502
rthumb -6.44662 -38.1015
lclavicle -5.18083e-015 -7.35503e-015
lhumerus 18.3507 -5.09896 41.8595
lradius 79.8352
lwrist 1.13478
lhand -38.6761 30.6625
lfingers 7.12502
lthumb -11.6914 60.3163
rfemur -0.270456 6.03666 31.9673
rtibia 12.1338
rfoot 22.2554 -20.5168
rtoes -29.5998
lfemur -1.1636 -8.6078 -26.222
ltibia 17.2806
lfoot -3.56962 31.9633
ltoes -43.2367
